<svg width="39" height="39" viewBox="0 0 39 39" fill="none" xmlns="http://www.w3.org/2000/svg">
<g clip-path="url(#clip0_3051_299)">
<path d="M19.5 2.4375L4.14365 13.1869C3.07434 13.9355 2.4375 15.1586 2.4375 16.4639V35.5625C2.4375 36.1148 2.88521 36.5625 3.4375 36.5625H12C12.5523 36.5625 13 36.1148 13 35.5625V28.375C13 26.1659 14.7909 24.375 17 24.375H22C24.2091 24.375 26 26.1659 26 28.375V35.5625C26 36.1148 26.4477 36.5625 27 36.5625H35.5625C36.1148 36.5625 36.5625 36.1148 36.5625 35.5625V16.4639C36.5625 15.1586 35.9257 13.9355 34.8563 13.1869L19.5 2.4375Z" stroke="#E7D8B5" stroke-width="3" stroke-linecap="round" stroke-linejoin="round"/>
</g>
<defs>
<clipPath id="clip0_3051_299">
<rect width="39" height="39" fill="white"/>
</clipPath>
</defs>
</svg>
